<svg xmlns="http://www.w3.org/2000/svg" width="58" height="58" viewBox="0 0 58 58">
  <polygon points="29,2 54,16 54,42 29,56 4,42 4,16" fill="#d4a853"/>
  <polygon points="29,5 51,17.5 51,40.5 29,53 7,40.5 7,17.5" fill="#0a0a0a"/>
  <ellipse cx="29" cy="46" rx="13" ry="4" fill="#6B3A00"/>
  <ellipse cx="29" cy="45" rx="10" ry="3" fill="#8B5E0A"/>
  <ellipse cx="24" cy="44" rx="3" ry="2.2" fill="#d4c070"/>
  <ellipse cx="29" cy="43.5" rx="3" ry="2.2" fill="#d4c070"/>
  <ellipse cx="34" cy="44" rx="3" ry="2.2" fill="#d4c070"/>
  <ellipse cx="29" cy="30" rx="7" ry="8" fill="#1e1e1e"/>
  <ellipse cx="29" cy="19" rx="6.5" ry="6.5" fill="#e8e8e0"/>
  <circle cx="31" cy="18" r="2" fill="#d4a853"/>
  <circle cx="31" cy="18" r="1" fill="#0a0a0a"/>
  <circle cx="31.5" cy="17.4" r="0.4" fill="white"/>
  <path d="M33 20 L39 22 L33 24 Z" fill="#d4a853"/>
  <path d="M22 26 Q12 20 8 24 Q10 30 18 29 Q20 28 22 30Z" fill="#222"/>
  <path d="M36 26 Q46 20 50 24 Q48 30 40 29 Q38 28 36 30Z" fill="#222"/>
  <path d="M24 39 Q29 44 34 39 Q31 42 29 40 Q27 42 24 39Z" fill="#d0d0c8"/>
</svg>
